<?xml version="1.0" encoding="UTF-8"?>
<svg xmlns="http://www.w3.org/2000/svg" xmlns:xlink="http://www.w3.org/1999/xlink" width="128px" height="128px" viewBox="0 0 128 128" version="1.1">
<g id="surface1">
<path style=" stroke:none;fill-rule:nonzero;fill:rgb(17.254902%,24.313726%,31.37255%);fill-opacity:1;" d="M 7.609375 0 L 120.390625 0 C 124.59375 0 128 3.40625 128 7.609375 L 128 120.390625 C 128 124.59375 124.59375 128 120.390625 128 L 7.609375 128 C 3.40625 128 0 124.59375 0 120.390625 L 0 7.609375 C 0 3.40625 3.40625 0 7.609375 0 Z M 7.609375 0 "/>
<path style=" stroke:none;fill-rule:nonzero;fill:rgb(100%,100%,100%);fill-opacity:1;" d="M 86.746094 11.3125 C 89.105469 13.019531 89.976562 16.109375 88.90625 18.804688 L 73.371094 57.660156 L 102.042969 57.660156 C 104.71875 57.660156 107.097656 59.324219 108.007812 61.839844 C 108.917969 64.355469 108.144531 67.171875 106.105469 68.875 L 49.039062 116.429688 C 46.800781 118.292969 43.609375 118.390625 41.253906 116.6875 C 38.894531 114.980469 38.023438 111.890625 39.09375 109.195312 L 54.628906 70.339844 L 25.957031 70.339844 C 23.28125 70.339844 20.902344 68.675781 19.992188 66.160156 C 19.082031 63.644531 19.855469 60.828125 21.894531 59.125 L 78.960938 11.570312 C 81.199219 9.707031 84.390625 9.609375 86.746094 11.3125 Z M 86.746094 11.3125 "/>
</g>
</svg>
